<svg xmlns="http://www.w3.org/2000/svg" width="13.93" height="13.927" viewBox="0 0 13.93 13.927">
  <path id="Icon_awesome-instagram" data-name="Icon awesome-instagram" d="M6.961,5.631A3.571,3.571,0,1,0,10.532,9.2,3.565,3.565,0,0,0,6.961,5.631Zm0,5.892A2.321,2.321,0,1,1,9.283,9.2,2.326,2.326,0,0,1,6.961,11.523Zm4.55-6.038a.833.833,0,1,1-.833-.833A.831.831,0,0,1,11.511,5.484Zm2.365.845a4.122,4.122,0,0,0-1.125-2.918A4.149,4.149,0,0,0,9.833,2.287c-1.15-.065-4.6-.065-5.746,0A4.143,4.143,0,0,0,1.169,3.409,4.135,4.135,0,0,0,.044,6.327c-.065,1.15-.065,4.6,0,5.746a4.122,4.122,0,0,0,1.125,2.918,4.154,4.154,0,0,0,2.918,1.125c1.15.065,4.6.065,5.746,0a4.122,4.122,0,0,0,2.918-1.125,4.149,4.149,0,0,0,1.125-2.918c.065-1.15.065-4.593,0-5.743Zm-1.485,6.977a2.35,2.35,0,0,1-1.324,1.324,15.349,15.349,0,0,1-4.105.28,15.469,15.469,0,0,1-4.105-.28,2.35,2.35,0,0,1-1.324-1.324A15.349,15.349,0,0,1,1.253,9.2,15.469,15.469,0,0,1,1.532,5.1,2.35,2.35,0,0,1,2.856,3.772a15.349,15.349,0,0,1,4.105-.28,15.469,15.469,0,0,1,4.105.28A2.35,2.35,0,0,1,12.391,5.1,15.349,15.349,0,0,1,12.67,9.2,15.34,15.34,0,0,1,12.391,13.307Z" transform="translate(0.005 -2.238)" fill="#fff"/>
</svg>
