<svg xmlns="http://www.w3.org/2000/svg" width="15.444" height="15.444" viewBox="0 0 15.444 15.444">
  <path id="Icon_awesome-linkedin-in" data-name="Icon awesome-linkedin-in" d="M3.457,15.445H.255V5.133h3.2ZM1.854,3.727A1.863,1.863,0,1,1,3.709,1.855,1.87,1.87,0,0,1,1.854,3.727ZM15.441,15.445h-3.2V10.425c0-1.2-.024-2.73-1.665-2.73-1.665,0-1.92,1.3-1.92,2.644v5.106h-3.2V5.133H8.534V6.54h.045a3.364,3.364,0,0,1,3.03-1.665c3.241,0,3.836,2.134,3.836,4.906v5.664Z" transform="translate(0 -0.001)" fill="#fff"/>
</svg>
